<svg width="72" height="72" viewBox="0 0 72 72" fill="none" xmlns="http://www.w3.org/2000/svg">
<g filter="url(#filter0_d)">
<rect x="15.1926" y="10.2163" width="41.7571" height="41.7571" rx="20.8785" fill="#E3B873"/>
</g>
<path d="M32.7654 37.27C31.7934 37.27 30.9114 37.012 30.1194 36.496C29.3274 35.98 28.6974 35.23 28.2294 34.246C27.7734 33.25 27.5454 32.068 27.5454 30.7C27.5454 29.332 27.7734 28.156 28.2294 27.172C28.6974 26.176 29.3274 25.42 30.1194 24.904C30.9114 24.388 31.7934 24.13 32.7654 24.13C33.7374 24.13 34.6194 24.388 35.4114 24.904C36.2034 25.42 36.8274 26.176 37.2834 27.172C37.7514 28.156 37.9854 29.332 37.9854 30.7C37.9854 32.068 37.7514 33.25 37.2834 34.246C36.8274 35.23 36.2034 35.98 35.4114 36.496C34.6194 37.012 33.7374 37.27 32.7654 37.27ZM32.7654 36.91C34.1454 36.91 34.8354 34.84 34.8354 30.7C34.8354 26.56 34.1454 24.49 32.7654 24.49C31.3854 24.49 30.6954 26.56 30.6954 30.7C30.6954 34.84 31.3854 36.91 32.7654 36.91ZM40.0539 37V36.73L41.3139 36.37V26.488L39.4239 27.82L39.0639 27.37L42.3399 24.4H44.2839V36.37L45.5439 36.73V37H40.0539Z" fill="white"/>
<defs>
<filter id="filter0_d" x="0.192627" y="0.216309" width="71.7571" height="71.7571" filterUnits="userSpaceOnUse" color-interpolation-filters="sRGB">
<feFlood flood-opacity="0" result="BackgroundImageFix"/>
<feColorMatrix in="SourceAlpha" type="matrix" values="0 0 0 0 0 0 0 0 0 0 0 0 0 0 0 0 0 0 127 0"/>
<feOffset dy="5"/>
<feGaussianBlur stdDeviation="7.5"/>
<feColorMatrix type="matrix" values="0 0 0 0 0.890196 0 0 0 0 0.721569 0 0 0 0 0.45098 0 0 0 0.15 0"/>
<feBlend mode="normal" in2="BackgroundImageFix" result="effect1_dropShadow"/>
<feBlend mode="normal" in="SourceGraphic" in2="effect1_dropShadow" result="shape"/>
</filter>
</defs>
</svg>
