<svg width="73" height="73" viewBox="0 0 73 73" fill="none" xmlns="http://www.w3.org/2000/svg">
<g filter="url(#filter0_d)">
<rect x="15.8531" y="10.5183" width="41.7571" height="41.7571" rx="20.8785" fill="#E3B873"/>
</g>
<path d="M31.3239 37.27C30.3519 37.27 29.4699 37.012 28.6779 36.496C27.8859 35.98 27.2559 35.23 26.7879 34.246C26.3319 33.25 26.1039 32.068 26.1039 30.7C26.1039 29.332 26.3319 28.156 26.7879 27.172C27.2559 26.176 27.8859 25.42 28.6779 24.904C29.4699 24.388 30.3519 24.13 31.3239 24.13C32.2959 24.13 33.1779 24.388 33.9699 24.904C34.7619 25.42 35.3859 26.176 35.8419 27.172C36.3099 28.156 36.5439 29.332 36.5439 30.7C36.5439 32.068 36.3099 33.25 35.8419 34.246C35.3859 35.23 34.7619 35.98 33.9699 36.496C33.1779 37.012 32.2959 37.27 31.3239 37.27ZM31.3239 36.91C32.7039 36.91 33.3939 34.84 33.3939 30.7C33.3939 26.56 32.7039 24.49 31.3239 24.49C29.9439 24.49 29.2539 26.56 29.2539 30.7C29.2539 34.84 29.9439 36.91 31.3239 36.91ZM37.8925 36.19C37.8925 35.482 38.0305 34.84 38.3065 34.264C38.5945 33.676 38.9425 33.166 39.3505 32.734C39.7585 32.302 40.2925 31.792 40.9525 31.204C41.5645 30.664 42.0445 30.214 42.3925 29.854C42.7405 29.482 43.0345 29.068 43.2745 28.612C43.5145 28.144 43.6345 27.64 43.6345 27.1C43.6345 26.308 43.4425 25.69 43.0585 25.246C42.6745 24.802 42.1765 24.58 41.5645 24.58C41.2165 24.58 40.8625 24.628 40.5025 24.724L40.1245 24.85V27.73L39.8905 27.784C39.6985 27.808 39.5365 27.82 39.4045 27.82C38.9965 27.82 38.6665 27.7 38.4145 27.46C38.1745 27.208 38.0545 26.878 38.0545 26.47C38.0545 26.086 38.1985 25.714 38.4865 25.354C38.7865 24.994 39.2245 24.7 39.8005 24.472C40.3885 24.244 41.0965 24.13 41.9245 24.13C43.5445 24.13 44.7445 24.454 45.5245 25.102C46.3045 25.75 46.6945 26.656 46.6945 27.82C46.6945 28.552 46.5025 29.182 46.1185 29.71C45.7465 30.238 45.2845 30.676 44.7325 31.024C44.1925 31.372 43.4665 31.768 42.5545 32.212C41.7865 32.584 41.1625 32.914 40.6825 33.202C40.2145 33.478 39.7765 33.814 39.3685 34.21C38.9725 34.606 38.6905 35.056 38.5225 35.56H45.1825C45.2665 34.912 45.4705 34.372 45.7945 33.94C45.9265 33.736 46.0825 33.556 46.2625 33.4H46.8025V37H37.8925V36.19Z" fill="white"/>
<defs>
<filter id="filter0_d" x="0.853149" y="0.518311" width="71.7571" height="71.7571" filterUnits="userSpaceOnUse" color-interpolation-filters="sRGB">
<feFlood flood-opacity="0" result="BackgroundImageFix"/>
<feColorMatrix in="SourceAlpha" type="matrix" values="0 0 0 0 0 0 0 0 0 0 0 0 0 0 0 0 0 0 127 0"/>
<feOffset dy="5"/>
<feGaussianBlur stdDeviation="7.5"/>
<feColorMatrix type="matrix" values="0 0 0 0 0.890196 0 0 0 0 0.721569 0 0 0 0 0.45098 0 0 0 0.15 0"/>
<feBlend mode="normal" in2="BackgroundImageFix" result="effect1_dropShadow"/>
<feBlend mode="normal" in="SourceGraphic" in2="effect1_dropShadow" result="shape"/>
</filter>
</defs>
</svg>
