<svg width="72" height="72" viewBox="0 0 72 72" fill="none" xmlns="http://www.w3.org/2000/svg">
<g filter="url(#filter0_d)">
<rect x="15" y="10.1377" width="41.7571" height="41.7571" rx="20.8785" fill="#E3B873"/>
</g>
<path d="M30.2361 36.27C29.2641 36.27 28.3821 36.012 27.5901 35.496C26.7981 34.98 26.1681 34.23 25.7001 33.246C25.2441 32.25 25.0161 31.068 25.0161 29.7C25.0161 28.332 25.2441 27.156 25.7001 26.172C26.1681 25.176 26.7981 24.42 27.5901 23.904C28.3821 23.388 29.2641 23.13 30.2361 23.13C31.2081 23.13 32.0901 23.388 32.8821 23.904C33.6741 24.42 34.2981 25.176 34.7541 26.172C35.2221 27.156 35.4561 28.332 35.4561 29.7C35.4561 31.068 35.2221 32.25 34.7541 33.246C34.2981 34.23 33.6741 34.98 32.8821 35.496C32.0901 36.012 31.2081 36.27 30.2361 36.27ZM30.2361 35.91C31.6161 35.91 32.3061 33.84 32.3061 29.7C32.3061 25.56 31.6161 23.49 30.2361 23.49C28.8561 23.49 28.1661 25.56 28.1661 29.7C28.1661 33.84 28.8561 35.91 30.2361 35.91ZM40.5846 36.27C39.7566 36.27 39.0486 36.156 38.4606 35.928C37.8846 35.7 37.4466 35.406 37.1466 35.046C36.8586 34.686 36.7146 34.314 36.7146 33.93C36.7146 33.522 36.8346 33.198 37.0746 32.958C37.3266 32.706 37.6566 32.58 38.0646 32.58C38.1606 32.58 38.2566 32.592 38.3526 32.616C38.4486 32.628 38.5146 32.634 38.5506 32.634L38.7846 32.67V35.55C38.7966 35.55 38.9226 35.598 39.1626 35.694C39.4746 35.778 39.8286 35.82 40.2246 35.82C41.0646 35.82 41.7066 35.568 42.1506 35.064C42.6066 34.548 42.8346 33.78 42.8346 32.76C42.8346 31.716 42.6126 30.93 42.1686 30.402C41.7366 29.874 41.1486 29.61 40.4046 29.61H39.5046V29.16H40.4046C40.9446 29.16 41.3946 28.92 41.7546 28.44C42.1146 27.96 42.2946 27.27 42.2946 26.37C42.2946 25.47 42.1086 24.78 41.7366 24.3C41.3646 23.82 40.8906 23.58 40.3146 23.58C40.0026 23.58 39.7026 23.628 39.4146 23.724C39.3786 23.736 39.2586 23.778 39.0546 23.85V26.73L38.8206 26.784C38.6286 26.808 38.4666 26.82 38.3346 26.82C37.9266 26.82 37.5966 26.7 37.3446 26.46C37.1046 26.208 36.9846 25.878 36.9846 25.47C36.9846 25.098 37.1286 24.732 37.4166 24.372C37.7046 24.012 38.1246 23.718 38.6766 23.49C39.2406 23.25 39.9066 23.13 40.6746 23.13C41.6826 23.13 42.5346 23.28 43.2306 23.58C43.9386 23.868 44.4666 24.258 44.8146 24.75C45.1746 25.242 45.3546 25.782 45.3546 26.37C45.3546 27.054 45.1806 27.6 44.8326 28.008C44.4846 28.404 44.0286 28.722 43.4646 28.962C42.9126 29.178 42.2826 29.304 41.5746 29.34V29.43C42.3666 29.466 43.0866 29.604 43.7346 29.844C45.1746 30.42 45.8946 31.392 45.8946 32.76C45.8946 33.816 45.4566 34.668 44.5806 35.316C43.7166 35.952 42.3846 36.27 40.5846 36.27Z" fill="white"/>
<defs>
<filter id="filter0_d" x="0" y="0.137695" width="71.7571" height="71.7571" filterUnits="userSpaceOnUse" color-interpolation-filters="sRGB">
<feFlood flood-opacity="0" result="BackgroundImageFix"/>
<feColorMatrix in="SourceAlpha" type="matrix" values="0 0 0 0 0 0 0 0 0 0 0 0 0 0 0 0 0 0 127 0"/>
<feOffset dy="5"/>
<feGaussianBlur stdDeviation="7.5"/>
<feColorMatrix type="matrix" values="0 0 0 0 0.890196 0 0 0 0 0.721569 0 0 0 0 0.45098 0 0 0 0.15 0"/>
<feBlend mode="normal" in2="BackgroundImageFix" result="effect1_dropShadow"/>
<feBlend mode="normal" in="SourceGraphic" in2="effect1_dropShadow" result="shape"/>
</filter>
</defs>
</svg>
